/* XPM */
static char *_0d8f08d0f3844e6e31e14ac03f6207bVbFhXdLZAQlDS7RM[] = {
/* columns rows colors chars-per-pixel */
"10 14 3 1 ",
"  c None",
". c black",
"X c white",
/* pixels */
" ........ ",
"..XXXXXX..",
".XXXXXXXX.",
".XXXXXXXX.",
".X..XX..X.",
".X..XX..X.",
".XXXXXXXX.",
".X......X.",
".X......X.",
".XX....XX.",
".XXXXXXXX.",
".XXXXXXXX.",
"..XXXXXX..",
" ........ "
};
